<?xml version="1.0" encoding="UTF-8"?>
<svg version="1.1" xmlns="http://www.w3.org/2000/svg" width="404" height="256">
<path d="M0 0 C1.43583001 -0.10836453 2.8740202 -0.18576167 4.3125 -0.25 C5.11300781 -0.29640625 5.91351563 -0.3428125 6.73828125 -0.390625 C9 0 9 0 10.6484375 1.65625 C12.17036371 4.2954284 13.25660483 6.89073749 14.3125 9.75 C14.74046875 10.8946875 15.1684375 12.039375 15.609375 13.21875 C16.07333278 14.47901355 16.53685775 15.73943651 17 17 C18.01715849 19.75137387 19.03829999 22.50123979 20.0625 25.25 C20.31588135 25.93070557 20.5692627 26.61141113 20.83032227 27.31274414 C22.47244852 31.68979194 24.23502007 35.97991865 26.1875 40.2265625 C27.20741437 42.45272175 28.11618416 44.71680908 29 47 C31.31146403 43.53280395 32.44433361 40.00353198 33.71484375 36.078125 C33.97125137 35.29991394 34.227659 34.52170288 34.49183655 33.71990967 C35.3113616 31.23132892 36.12493801 28.74086223 36.9375 26.25 C37.74696735 23.77358485 38.55781505 21.29765675 39.37245178 18.82293701 C39.87870462 17.28461618 40.38200362 15.74531893 40.88182068 14.20489502 C44.84181253 2.15818747 44.84181253 2.15818747 47 0 C48.64230364 -0.1245486 50.29052276 -0.17568524 51.9375 -0.1875 C52.83339844 -0.20167969 53.72929687 -0.21585937 54.65234375 -0.23046875 C57 0 57 0 59 2 C59.67578125 3.9609375 59.67578125 3.9609375 60.3125 6.375 C61.3865165 10.12874083 62.63970941 13.66618956 64.1875 17.25 C66.77531666 23.29882299 69.05789075 29.44485281 71.3125 35.625 C71.67432373 36.61016602 72.03614746 37.59533203 72.40893555 38.61035156 C72.74449463 39.53557617 73.08005371 40.46080078 73.42578125 41.4140625 C73.72911377 42.2488916 74.03244629 43.0837207 74.3449707 43.94384766 C75 46 75 46 75 48 C75.66 48 76.32 48 77 48 C77.22945313 46.97648437 77.45890625 45.95296875 77.6953125 44.8984375 C79.17141336 39.00181666 81.2072342 33.29251967 83.20361328 27.55566406 C83.87063077 25.63756431 84.53140993 23.71740042 85.19140625 21.796875 C92.26271802 1.36864099 92.26271802 1.36864099 95 0 C97.6723621 -0.13415472 100.32250488 -0.04318541 103 0 C104.45189241 4.65962584 103.41288284 7.51086096 101.71875 12.00390625 C101.4697142 12.67579483 101.22067841 13.34768341 100.96409607 14.03993225 C100.15401333 16.21852955 99.32709539 18.39031161 98.5 20.5625 C97.94077139 22.05792039 97.38291439 23.55385441 96.82641602 25.05029297 C95.99525703 27.28482754 95.16328029 29.51900856 94.32655334 31.75146484 C91.81910615 38.44488156 89.45399596 45.18336636 87.14453125 51.94750977 C82.98748554 64.01251446 82.98748554 64.01251446 80 67 C77.94140625 67.30078125 77.94140625 67.30078125 75.5625 67.3125 C74.38880859 67.33763672 74.38880859 67.33763672 73.19140625 67.36328125 C70.38938655 66.89877531 69.78830026 66.18982045 68 64 C66.82080078 61.32714844 66.82080078 61.32714844 65.6953125 58.109375 C65.27878418 56.93084961 64.86225586 55.75232422 64.43310547 54.53808594 C63.99679631 53.27548528 63.56076568 52.01278834 63.125 50.75 C62.67788008 49.47406151 62.23012544 48.19834527 61.78173828 46.92285156 C58.76380713 38.31283503 55.80534457 29.68180319 53 21 C50.93818063 23.06181937 50.45055842 24.11052944 49.51953125 26.796875 C49.24584717 27.58078613 48.97216309 28.36469727 48.69018555 29.17236328 C48.2557312 30.44829346 48.2557312 30.44829346 47.8125 31.75 C47.50932861 32.6251123 47.20615723 33.50022461 46.89379883 34.40185547 C44.20834729 42.22249863 41.71288554 50.10289617 39.30981445 58.01464844 C39.03613037 58.89926758 38.76244629 59.78388672 38.48046875 60.6953125 C38.24223389 61.47922363 38.00399902 62.26313477 37.75854492 63.07080078 C37 65 37 65 35 67 C32.46875 67.265625 32.46875 67.265625 29.5 67.25 C28.5203125 67.25515625 27.540625 67.2603125 26.53125 67.265625 C24 67 24 67 22 65 C21.00580982 62.3019208 20.0833328 59.60582767 19.1875 56.875 C15.19592426 45.06082778 10.44176948 33.57391213 5.69992065 22.04721069 C-1.53098929 4.45378702 -1.53098929 4.45378702 0 0 Z " fill="#F5B629" transform="translate(213,107)"/>
<path d="M0 0 C2 2 2 2 2.24050903 4.4803772 C2.23606781 5.52406464 2.23162659 6.56775208 2.22705078 7.64306641 C2.22682419 9.41467636 2.22682419 9.41467636 2.22659302 11.22207642 C2.21627045 12.50230682 2.20594788 13.78253723 2.1953125 15.1015625 C2.1924826 16.40829926 2.18965271 17.71503601 2.18673706 19.06137085 C2.17909776 22.53682081 2.1594469 26.01210383 2.1373291 29.48748779 C2.11687696 33.03330222 2.10773671 36.5791436 2.09765625 40.125 C2.07620116 47.08340195 2.04206173 54.04169296 2 61 C2.73471527 60.99555878 3.46943054 60.99111755 4.22640991 60.98654175 C11.14235368 60.94650724 18.05828017 60.91603712 24.97430992 60.89637566 C28.53012399 60.88592776 32.0858425 60.87175041 35.64160156 60.84912109 C39.727223 60.82328168 43.81274369 60.81353556 47.8984375 60.8046875 C49.17866791 60.79436493 50.45889832 60.78404236 51.77792358 60.77340698 C52.95899689 60.77325592 54.14007019 60.77310486 55.35693359 60.77294922 C56.40062103 60.768508 57.44430847 60.76406677 58.5196228 60.75949097 C61 61 61 61 63 63 C63.23046875 65.09375 63.23046875 65.09375 63.1875 67.5 C63.18105469 68.2940625 63.17460937 69.088125 63.16796875 69.90625 C63 72 63 72 62 74 C54.74880255 75.40249041 47.37475201 75.14444625 40.015625 75.1328125 C38.66900617 75.13348734 37.32238746 75.13445886 35.97576904 75.13571167 C33.16856718 75.13717816 30.36139734 75.13506666 27.55419922 75.13037109 C23.96086223 75.12465231 20.3675996 75.12797298 16.77426529 75.13394356 C13.99987224 75.13755879 11.2254968 75.13640653 8.45110321 75.13381577 C6.48353527 75.13282777 4.51596664 75.13585563 2.54840088 75.13894653 C0.75568756 75.13421829 0.75568756 75.13421829 -1.07324219 75.12939453 C-2.64921173 75.12820114 -2.64921173 75.12820114 -4.25701904 75.12698364 C-7 75 -7 75 -11 74 C-11 50.24 -11 26.48 -11 2 C-6.5673705 0.2269482 -4.56241479 -0.40554798 0 0 Z " fill="#91D3C4" transform="translate(194,151)"/>
<path d="M0 0 C0.886875 0.07992187 1.77375 0.15984375 2.6875 0.2421875 C4.0178125 0.33886719 4.0178125 0.33886719 5.375 0.4375 C7.6875 1.1171875 7.6875 1.1171875 8.82258606 2.74214172 C9.96222828 5.87158884 9.89206206 8.46673472 9.83862305 11.79760742 C9.83076782 12.45982803 9.8229126 13.12204865 9.81481934 13.80433655 C9.78631927 15.98572023 9.74305004 18.166531 9.69921875 20.34765625 C9.67557855 21.86410887 9.65270615 23.38057364 9.63056946 24.89704895 C9.58209487 28.07042577 9.52673758 31.24358144 9.46606445 34.41674805 C9.38834794 38.49237739 9.32406095 42.56807813 9.26440716 46.64400768 C9.21778859 49.77263957 9.16600501 52.90116792 9.11243629 56.02968788 C9.08695956 57.53323758 9.06266613 59.03680779 9.0395565 60.54039574 C9.00620893 62.63537485 8.96637067 64.73012613 8.92456055 66.82495117 C8.90298386 68.01867844 8.88140717 69.2124057 8.85917664 70.44230652 C8.6875 73.1171875 8.6875 73.1171875 7.6875 74.1171875 C5.44820114 74.21155279 3.2058825 74.23461077 0.96459961 74.23071289 C0.2621965 74.23085892 -0.4402066 74.23100494 -1.16389465 74.2311554 C-3.49601278 74.23045622 -5.828052 74.22266367 -8.16015625 74.21484375 C-9.77298438 74.21297958 -11.38581307 74.21155568 -12.99864197 74.21055603 C-17.25165357 74.20673073 -21.50463124 74.19690035 -25.75762939 74.18585205 C-30.0942743 74.17563819 -34.43092467 74.17105846 -38.76757812 74.16601562 C-47.28256769 74.15527809 -55.79752963 74.13820153 -64.3125 74.1171875 C-64.5618357 72.51603174 -64.78628648 70.91098591 -65 69.3046875 C-65.12761719 68.41136719 -65.25523437 67.51804687 -65.38671875 66.59765625 C-65.3125 64.1171875 -65.3125 64.1171875 -64.18608093 62.31425476 C-61.58433313 60.65194754 -59.72631613 60.75657698 -56.64770508 60.77661133 C-55.48672806 60.77683792 -54.32575104 60.77706451 -53.1295929 60.77729797 C-51.87639755 60.79278183 -50.62320221 60.80826569 -49.33203125 60.82421875 C-48.04890549 60.82846359 -46.76577972 60.83270844 -45.44377136 60.83708191 C-42.03563862 60.84852588 -38.6278906 60.87798854 -35.21990967 60.91119385 C-31.74106043 60.94190478 -28.26214891 60.95558939 -24.78320312 60.97070312 C-17.95947757 61.00285915 -11.13600726 61.05404974 -4.3125 61.1171875 C-4.31694122 60.38247223 -4.32138245 59.64775696 -4.32595825 58.89077759 C-4.36599276 51.97483382 -4.39646288 45.05890733 -4.41612434 38.14287758 C-4.42657224 34.58706351 -4.44074959 31.031345 -4.46337891 27.47558594 C-4.48921832 23.3899645 -4.49896444 19.30444381 -4.5078125 15.21875 C-4.51813507 13.93851959 -4.52845764 12.65828918 -4.53909302 11.33926392 C-4.53931961 9.56765396 -4.53931961 9.56765396 -4.53955078 7.76025391 C-4.543992 6.71656647 -4.54843323 5.67287903 -4.55300903 4.5975647 C-4.22866347 1.2525787 -3.41568014 0.1730919 0 0 Z " fill="#62CAE6" transform="translate(340.3125,150.8828125)"/>
<path d="M0 0 C24.75 0 49.5 0 75 0 C76 20 76 20 75 28 C74.92928213 29.6119778 74.89097323 31.22611141 74.90234375 32.83959961 C74.90564697 33.69666 74.9089502 34.5537204 74.91235352 35.43675232 C74.92480103 36.78097008 74.92480103 36.78097008 74.9375 38.15234375 C74.94128662 39.09308243 74.94507324 40.03382111 74.94897461 41.00306702 C74.96110782 43.98125987 74.97975852 46.95935192 75 49.9375 C75.02649368 53.8841116 75.04650014 57.83067732 75.0625 61.77734375 C75.07494751 63.14281593 75.07494751 63.14281593 75.08764648 64.53587341 C75.09617118 66.69076347 75.05347839 68.84575677 75 71 C74.67 71.33 74.34 71.66 74 72 C69.71 72 65.42 72 61 72 C61 52.2 61 32.4 61 12 C58.36 12.33 55.72 12.66 53 13 C51.10684932 13.05305867 49.21179282 13.06349543 47.31835938 13.02172852 C46.27788452 13.00163223 45.23740967 12.98153595 44.16540527 12.96083069 C43.06925903 12.93379562 41.97311279 12.90676056 40.84375 12.87890625 C39.12943787 12.84348976 39.12943787 12.84348976 37.38049316 12.80735779 C33.753521 12.73118318 30.1267877 12.64696142 26.5 12.5625 C24.03126143 12.50923301 21.56251144 12.45649298 19.09375 12.40429688 C13.06235431 12.27563103 7.03113406 12.14036927 1 12 C0 9 0 9 0 0 Z " fill="#93BF59" transform="translate(275,60)"/>
<path d="M0 0 C0.99639748 0.01397324 0.99639748 0.01397324 2.01292419 0.02822876 C4.18307513 0.06228443 6.35205169 0.11822567 8.52172852 0.17456055 C10.03627608 0.20262768 11.5508498 0.22931442 13.06544495 0.25468445 C17.03266618 0.32481731 20.99925545 0.41358395 24.96600342 0.50634766 C29.02147178 0.59784961 33.07726003 0.67157063 37.13305664 0.74682617 C45.07683411 0.89682598 53.02003204 1.06652938 60.96313477 1.2487793 C61.01708955 2.87341772 61.05590671 4.49856471 61.08813477 6.1237793 C61.11133789 7.02870117 61.13454102 7.93362305 61.15844727 8.8659668 C60.96313477 11.2487793 60.96313477 11.2487793 58.96313477 13.2487793 C56.48275757 13.48928833 56.48275757 13.48928833 53.32006836 13.47583008 C52.12244873 13.47558838 50.9248291 13.47534668 49.69091797 13.47509766 C48.42723389 13.46486572 47.1635498 13.45463379 45.86157227 13.4440918 C44.70375244 13.44207764 43.54593262 13.44006348 42.35302734 13.43798828 C38.0146897 13.42749893 33.67640839 13.39957654 29.33813477 13.3737793 C14.79750977 13.3119043 14.79750977 13.3119043 -0.03686523 13.2487793 C-0.03686523 33.0487793 -0.03686523 52.8487793 -0.03686523 73.2487793 C-4.32686523 73.2487793 -8.61686523 73.2487793 -13.03686523 73.2487793 C-13.16748676 64.56487979 -13.29791895 55.88097749 -13.42801666 47.19707012 C-13.488432 43.16490693 -13.54893072 39.13274503 -13.60961914 35.10058594 C-13.66816973 31.21026204 -13.72650242 27.31993493 -13.78468323 23.42960548 C-13.80693277 21.94443457 -13.82926119 20.45926483 -13.85166931 18.9740963 C-13.88301035 16.89598262 -13.91407244 14.81786495 -13.94506836 12.73974609 C-13.96283325 11.55616013 -13.98059814 10.37257416 -13.99890137 9.15312195 C-14.02462574 7.18513517 -14.03686523 5.2169342 -14.03686523 3.2487793 C-9.08383537 0.84614503 -5.60051324 -0.11472187 0 0 Z " fill="#E77443" transform="translate(196.036865234375,58.751220703125)"/>
<path d="M0 0 C2.31 0 4.62 0 7 0 C7.50512244 1.60256108 8.00391627 3.20711792 8.5 4.8125 C8.7784375 5.70582031 9.056875 6.59914063 9.34375 7.51953125 C10 10 10 10 10 13 C10.66 13 11.32 13 12 13 C12.37511719 14.00417969 12.75023437 15.00835937 13.13671875 16.04296875 C14.75251884 20.36397372 16.37468166 24.68256699 18 29 C18.25040039 29.66580078 18.50080078 30.33160156 18.75878906 31.01757812 C19.44020319 32.82541154 20.1262227 34.63150711 20.8125 36.4375 C21.21082031 37.48808594 21.60914063 38.53867188 22.01953125 39.62109375 C22.78658038 41.91468387 22.78658038 41.91468387 24 43 C24.45459858 45.65463121 24.70243238 48.32189138 25 51 C28 52.33333333 28 52.33333333 31 51 C31.02689216 52.47906892 31.04634621 53.95827483 31.0625 55.4375 C31.07410156 56.26121094 31.08570313 57.08492187 31.09765625 57.93359375 C31 60 31 60 30 61 C27.32941149 61.14115161 24.67567762 61.04247107 22 61 C20.64560332 58.29120665 20.93498549 55.99066732 21 53 C20.34 53 19.68 53 19 53 C15.74440692 47.21227898 13.76474265 41.27426761 11.86328125 34.94213867 C10.48033322 30.39046829 8.88812087 26.0717358 6.83984375 21.76953125 C6.10258523 20.21614469 5.47874447 18.60998526 4.875 17 C4.17605071 14.82128186 4.17605071 14.82128186 2 14 C1.67 15.65 1.34 17.3 1 19 C0.34 19 -0.32 19 -1 19 C-1.99 23.29 -2.98 27.58 -4 32 C-4.66 32 -5.32 32 -6 32 C-5.979375 33.0725 -5.95875 34.145 -5.9375 35.25 C-5.9857984 38.14790424 -6.13155885 40.28612141 -7 43 C-7.66 43 -8.32 43 -9 43 C-9.103125 43.845625 -9.20625 44.69125 -9.3125 45.5625 C-10.07105504 49.35527519 -11.40206954 52.48455298 -13 56 C-13.37125 56.94875 -13.7425 57.8975 -14.125 58.875 C-15 61 -15 61 -16 62 C-18.67058851 62.14115161 -21.32432238 62.04247107 -24 62 C-29.21835396 54.03682377 -30.96978024 47.50411526 -31 38 C-31.66 38 -32.32 38 -33 38 C-33.53469802 36.27507022 -34.05219175 34.544802 -34.5625 32.8125 C-34.99755859 31.36810547 -34.99755859 31.36810547 -35.44140625 29.89453125 C-36.02461026 26.87247412 -35.81178385 24.94070045 -35 22 C-34.67 22.99 -34.34 23.98 -34 25 C-33.34 25 -32.68 25 -32 25 C-31.72285156 25.78246094 -31.44570312 26.56492188 -31.16015625 27.37109375 C-30.79792969 28.38300781 -30.43570313 29.39492187 -30.0625 30.4375 C-29.70285156 31.44683594 -29.34320313 32.45617187 -28.97265625 33.49609375 C-28.23122361 35.90313745 -28.23122361 35.90313745 -27 37 C-26.95919217 38.99958364 -26.95745644 41.00045254 -27 43 C-26.34 43 -25.68 43 -25 43 C-25 44.32 -25 45.64 -25 47 C-24.34 47 -23.68 47 -23 47 C-23 48.65 -23 50.3 -23 52 C-21.35 52.33 -19.7 52.66 -18 53 C-17.89429688 52.21109375 -17.78859375 51.4221875 -17.6796875 50.609375 C-16.81958707 46.04194512 -15.49108751 41.68811846 -14.125 37.25 C-13.74021484 35.98542969 -13.74021484 35.98542969 -13.34765625 34.6953125 C-12.82892899 32.99055053 -12.3077644 31.28652832 -11.78417969 29.58325195 C-11.25200983 27.83017309 -10.73222043 26.07329745 -10.22363281 24.31323242 C-8.95383669 19.93519977 -7.66650729 15.84692544 -5.5 11.8125 C-3.47148284 7.93319074 -1.67092772 4.04540395 0 0 Z " fill="#F8B423" transform="translate(262,109)"/>
<path d="M0 0 C21.45 0 42.9 0 65 0 C65 22.11 65 44.22 65 67 C63.35 67.33 61.7 67.66 60 68 C59 67 59 67 58.87974548 64.63987732 C58.88196609 63.59396927 58.88418671 62.54806122 58.88647461 61.47045898 C58.88659546 60.27271851 58.88671631 59.07497803 58.88684082 57.84094238 C58.89195679 56.57214233 58.89707275 55.30334229 58.90234375 53.99609375 C58.90335083 52.83726685 58.90435791 51.67843994 58.90539551 50.48449707 C58.91064673 46.13548805 58.92460784 41.78649308 58.9375 37.4375 C58.9684375 22.8659375 58.9684375 22.8659375 59 8 C29.795 7.505 29.795 7.505 0 7 C-1 2 -1 2 0 0 Z " fill="#89C43D" transform="translate(281,61)"/>
<path d="M0 0 C1.45189241 4.65962584 0.41288284 7.51086096 -1.28125 12.00390625 C-1.6548037 13.01173912 -1.6548037 13.01173912 -2.03590393 14.03993225 C-2.84598667 16.21852955 -3.67290461 18.39031161 -4.5 20.5625 C-5.05922861 22.05792039 -5.61708561 23.55385441 -6.17358398 25.05029297 C-7.00474297 27.28482754 -7.83671971 29.51900856 -8.67344666 31.75146484 C-11.18089385 38.44488156 -13.54600404 45.18336636 -15.85546875 51.94750977 C-20.01251446 64.01251446 -20.01251446 64.01251446 -23 67 C-25.05859375 67.30078125 -25.05859375 67.30078125 -27.4375 67.3125 C-28.61119141 67.33763672 -28.61119141 67.33763672 -29.80859375 67.36328125 C-32.61061345 66.89877531 -33.21169974 66.18982045 -35 64 C-36.17919922 61.32714844 -36.17919922 61.32714844 -37.3046875 58.109375 C-37.72121582 56.93084961 -38.13774414 55.75232422 -38.56689453 54.53808594 C-39.00320369 53.27548528 -39.43923432 52.01278834 -39.875 50.75 C-40.32211992 49.47406151 -40.76987456 48.19834527 -41.21826172 46.92285156 C-44.23619287 38.31283503 -47.19465543 29.68180319 -50 21 C-52.20935697 23.20935697 -52.68499066 24.5699957 -53.65625 27.5 C-53.95660156 28.386875 -54.25695312 29.27375 -54.56640625 30.1875 C-54.87449219 31.115625 -55.18257813 32.04375 -55.5 33 C-56.10916482 34.83514087 -56.72351332 36.66857153 -57.34375 38.5 C-57.61380859 39.3146875 -57.88386719 40.129375 -58.16210938 40.96875 C-59 43 -59 43 -61 45 C-60.67 41.37 -60.34 37.74 -60 34 C-59.34 34 -58.68 34 -58 34 C-58.061875 33.154375 -58.12375 32.30875 -58.1875 31.4375 C-57.95984372 27.26380157 -56.79792186 24.74567053 -55 21 C-54.34 21 -53.68 21 -53 21 C-52.67 19.35 -52.34 17.7 -52 16 C-50.125 16.65234375 -50.125 16.65234375 -48 18 C-46.875 20.50390625 -46.875 20.50390625 -46 23.5625 C-44.83866676 27.38351407 -43.63789639 31.0108495 -41.9375 34.625 C-40.11760342 38.55740399 -38.8485424 42.52880777 -37.66015625 46.69140625 C-36.85957753 49.49106321 -35.94241868 52.2452377 -35 55 C-34.34 55 -33.68 55 -33 55 C-32.67 57.64 -32.34 60.28 -32 63 C-29.36 62.67 -26.72 62.34 -24 62 C-24 59.36 -24 56.72 -24 54 C-24.61875 54.20625 -25.2375 54.4125 -25.875 54.625 C-26.57625 54.74875 -27.2775 54.8725 -28 55 C-28.66 54.34 -29.32 53.68 -30 53 C-29.625 50.875 -29.625 50.875 -29 49 C-28.01 49.33 -27.02 49.66 -26 50 C-25.41992188 48.44152344 -25.41992188 48.44152344 -24.828125 46.8515625 C-24.302366 45.44260282 -23.7763037 44.0337563 -23.25 42.625 C-22.97704102 41.89418213 -22.70408203 41.16336426 -22.42285156 40.41040039 C-20.6475224 35.67566653 -18.81112278 30.97395577 -16.859375 26.30859375 C-15.22577477 21.92014949 -14.07932717 17.4027958 -13 12.8515625 C-12.835 12.15675781 -12.67 11.46195313 -12.5 10.74609375 C-12.1614304 9.30981802 -11.8282524 7.87226248 -11.5 6.43359375 C-11.06124555 4.60659281 -10.53721522 2.8005104 -10 1 C-6.78548731 -0.60725635 -3.56387464 -0.05748185 0 0 Z " fill="#F8B631" transform="translate(316,107)"/>
<path d="M0 0 C1.65 0 3.3 0 5 0 C5.33 19.47 5.66 38.94 6 59 C8.62177779 60.3108889 10.61524634 60.16083707 13.55126953 60.20532227 C15.29284836 60.2352401 15.29284836 60.2352401 17.0696106 60.26576233 C18.32796722 60.28247482 19.58632385 60.29918732 20.8828125 60.31640625 C22.16735321 60.33718735 23.45189392 60.35796844 24.77536011 60.37937927 C28.19149359 60.43459049 31.60768745 60.48400388 35.02392578 60.53222656 C38.50949481 60.58244857 41.99497609 60.63813097 45.48046875 60.69335938 C52.32023642 60.80092928 59.16008334 60.90237684 66 61 C66 62.98 66 64.96 66 67 C43.89 67 21.78 67 -1 67 C-1.020625 56.130625 -1.04125 45.26125 -1.0625 34.0625 C-1.071604 30.62593994 -1.08070801 27.18937988 -1.09008789 23.64868164 C-1.09300674 20.94417358 -1.09555537 18.23966507 -1.09765625 15.53515625 C-1.10026962 14.82789902 -1.102883 14.12064178 -1.10557556 13.39195251 C-1.11285596 11.31865067 -1.11390732 9.24543178 -1.11352539 7.17211914 C-1.115746 6.00185684 -1.11796661 4.83159454 -1.12025452 3.62586975 C-1 1 -1 1 0 0 Z " fill="#6CC8B4" transform="translate(187,155)"/>
<path d="M0 0 C0.886875 0.07992187 1.77375 0.15984375 2.6875 0.2421875 C4.0178125 0.33886719 4.0178125 0.33886719 5.375 0.4375 C7.6875 1.1171875 7.6875 1.1171875 8.82258606 2.74214172 C9.96222828 5.87158884 9.89206206 8.46673472 9.83862305 11.79760742 C9.83076782 12.45982803 9.8229126 13.12204865 9.81481934 13.80433655 C9.78631927 15.98572023 9.74305004 18.166531 9.69921875 20.34765625 C9.67557855 21.86410887 9.65270615 23.38057364 9.63056946 24.89704895 C9.58209487 28.07042577 9.52673758 31.24358144 9.46606445 34.41674805 C9.38834794 38.49237739 9.32406095 42.56807813 9.26440716 46.64400768 C9.21778859 49.77263957 9.16600501 52.90116792 9.11243629 56.02968788 C9.08695956 57.53323758 9.06266613 59.03680779 9.0395565 60.54039574 C9.00620893 62.63537485 8.96637067 64.73012613 8.92456055 66.82495117 C8.90298386 68.01867844 8.88140717 69.2124057 8.85917664 70.44230652 C8.6875 73.1171875 8.6875 73.1171875 7.6875 74.1171875 C5.44820114 74.21155279 3.2058825 74.23461077 0.96459961 74.23071289 C0.2621965 74.23085892 -0.4402066 74.23100494 -1.16389465 74.2311554 C-3.49601278 74.23045622 -5.828052 74.22266367 -8.16015625 74.21484375 C-9.77298438 74.21297958 -11.38581307 74.21155568 -12.99864197 74.21055603 C-17.25165357 74.20673073 -21.50463124 74.19690035 -25.75762939 74.18585205 C-30.0942743 74.17563819 -34.43092467 74.17105846 -38.76757812 74.16601562 C-47.28256769 74.15527809 -55.79752963 74.13820153 -64.3125 74.1171875 C-64.5618357 72.51603174 -64.78628648 70.91098591 -65 69.3046875 C-65.12761719 68.41136719 -65.25523437 67.51804687 -65.38671875 66.59765625 C-65.3125 64.1171875 -65.3125 64.1171875 -64.18608093 62.31425476 C-61.58433313 60.65194754 -59.72631613 60.75657698 -56.64770508 60.77661133 C-55.48672806 60.77683792 -54.32575104 60.77706451 -53.1295929 60.77729797 C-51.87639755 60.79278183 -50.62320221 60.80826569 -49.33203125 60.82421875 C-48.04890549 60.82846359 -46.76577972 60.83270844 -45.44377136 60.83708191 C-42.03563862 60.84852588 -38.6278906 60.87798854 -35.21990967 60.91119385 C-31.74106043 60.94190478 -28.26214891 60.95558939 -24.78320312 60.97070312 C-17.95947757 61.00285915 -11.13600726 61.05404974 -4.3125 61.1171875 C-4.31694122 60.38247223 -4.32138245 59.64775696 -4.32595825 58.89077759 C-4.36599276 51.97483382 -4.39646288 45.05890733 -4.41612434 38.14287758 C-4.42657224 34.58706351 -4.44074959 31.031345 -4.46337891 27.47558594 C-4.48921832 23.3899645 -4.49896444 19.30444381 -4.5078125 15.21875 C-4.51813507 13.93851959 -4.52845764 12.65828918 -4.53909302 11.33926392 C-4.53931961 9.56765396 -4.53931961 9.56765396 -4.53955078 7.76025391 C-4.543992 6.71656647 -4.54843323 5.67287903 -4.55300903 4.5975647 C-4.22866347 1.2525787 -3.41568014 0.1730919 0 0 Z M-2.3125 3.1171875 C-2.3125 23.2471875 -2.3125 43.3771875 -2.3125 64.1171875 C-22.4425 64.1171875 -42.5725 64.1171875 -63.3125 64.1171875 C-63.3125 67.0871875 -63.3125 70.0571875 -63.3125 73.1171875 C-40.2125 73.1171875 -17.1125 73.1171875 6.6875 73.1171875 C6.6875 50.0171875 6.6875 26.9171875 6.6875 3.1171875 C3.7175 3.1171875 0.7475 3.1171875 -2.3125 3.1171875 Z " fill="#B9EAF7" transform="translate(340.3125,150.8828125)"/>
<path d="M0 0 C0.99 0 1.98 0 3 0 C3 1.32 3 2.64 3 4 C3.99 4 4.98 4 6 4 C6 24.13 6 44.26 6 65 C5.01 64.67 4.02 64.34 3 64 C2.01467285 64.3091333 1.0293457 64.6182666 0.01416016 64.93676758 C-5.0201842 66.50194973 -10.00624132 66.16044299 -15.2265625 66.01171875 C-16.2924057 65.98906448 -17.3582489 65.96641022 -18.45639038 65.94306946 C-20.70053689 65.89328744 -22.94457434 65.83835243 -25.18847656 65.77856445 C-28.62027408 65.68762523 -32.05213208 65.61297092 -35.484375 65.54101562 C-37.66929306 65.49053623 -39.85419006 65.43913542 -42.0390625 65.38671875 C-43.57513657 65.35223885 -43.57513657 65.35223885 -45.14224243 65.31706238 C-46.10028778 65.29066177 -47.05833313 65.26426117 -48.04541016 65.23706055 C-48.8836734 65.21548386 -49.72193665 65.19390717 -50.58560181 65.17167664 C-53.12430411 64.99116131 -55.51727384 64.54995084 -58 64 C-58 63.01 -58 62.02 -58 61 C-38.86 61 -19.72 61 0 61 C0.89489485 57.42042059 1.09405191 54.94571816 1.02172852 51.31347656 C1.00163223 50.17259583 0.98153595 49.03171509 0.96083069 47.85626221 C0.93379562 46.63010193 0.90676056 45.40394165 0.87890625 44.140625 C0.85529526 42.88111023 0.83168427 41.62159546 0.80735779 40.32391357 C0.74377606 36.98327726 0.67556319 33.64280089 0.60510254 30.30230713 C0.53427725 26.89041532 0.46954538 23.47840846 0.40429688 20.06640625 C0.27514476 13.37748398 0.13988533 6.68870595 0 0 Z " fill="#44C5E6" transform="translate(339,156)"/>
<path d="M0 0 C2 2 2 2 2.24050903 4.4803772 C2.23606781 5.52406464 2.23162659 6.56775208 2.22705078 7.64306641 C2.22682419 9.41467636 2.22682419 9.41467636 2.22659302 11.22207642 C2.21627045 12.50230682 2.20594788 13.78253723 2.1953125 15.1015625 C2.1924826 16.40829926 2.18965271 17.71503601 2.18673706 19.06137085 C2.17909776 22.53682081 2.1594469 26.01210383 2.1373291 29.48748779 C2.11687696 33.03330222 2.10773671 36.5791436 2.09765625 40.125 C2.07620116 47.08340195 2.04206173 54.04169296 2 61 C2.73471527 60.99555878 3.46943054 60.99111755 4.22640991 60.98654175 C11.14235368 60.94650724 18.05828017 60.91603712 24.97430992 60.89637566 C28.53012399 60.88592776 32.0858425 60.87175041 35.64160156 60.84912109 C39.727223 60.82328168 43.81274369 60.81353556 47.8984375 60.8046875 C49.17866791 60.79436493 50.45889832 60.78404236 51.77792358 60.77340698 C52.95899689 60.77325592 54.14007019 60.77310486 55.35693359 60.77294922 C56.40062103 60.768508 57.44430847 60.76406677 58.5196228 60.75949097 C61 61 61 61 63 63 C63.23046875 65.09375 63.23046875 65.09375 63.1875 67.5 C63.18105469 68.2940625 63.17460937 69.088125 63.16796875 69.90625 C63 72 63 72 62 74 C54.74880255 75.40249041 47.37475201 75.14444625 40.015625 75.1328125 C38.66900617 75.13348734 37.32238746 75.13445886 35.97576904 75.13571167 C33.16856718 75.13717816 30.36139734 75.13506666 27.55419922 75.13037109 C23.96086223 75.12465231 20.3675996 75.12797298 16.77426529 75.13394356 C13.99987224 75.13755879 11.2254968 75.13640653 8.45110321 75.13381577 C6.48353527 75.13282777 4.51596664 75.13585563 2.54840088 75.13894653 C0.75568756 75.13421829 0.75568756 75.13421829 -1.07324219 75.12939453 C-2.64921173 75.12820114 -2.64921173 75.12820114 -4.25701904 75.12698364 C-7 75 -7 75 -11 74 C-11 50.24 -11 26.48 -11 2 C-6.5673705 0.2269482 -4.56241479 -0.40554798 0 0 Z M-10 2 C-10.02312545 11.10959165 -10.04091612 20.21917326 -10.05181217 29.3287878 C-10.05704056 33.55831371 -10.0641374 37.7878196 -10.07543945 42.01733398 C-10.08626991 46.09568543 -10.09227717 50.17401757 -10.09487724 54.25238228 C-10.09673121 55.81177639 -10.10035127 57.3711694 -10.10573006 58.93055534 C-10.11294262 61.10729162 -10.11399085 63.28394714 -10.11352539 65.46069336 C-10.115746 66.70201523 -10.11796661 67.9433371 -10.12025452 69.22227478 C-10.31747011 71.907817 -10.31747011 71.907817 -9 73 C-6.82194281 73.09429342 -4.6407872 73.11742538 -2.46069336 73.11352539 C-1.77779739 73.11367142 -1.09490143 73.11381744 -0.39131165 73.1139679 C1.87587614 73.11326876 4.14298274 73.1054764 6.41015625 73.09765625 C7.97814387 73.09579207 9.54613207 73.09436817 11.11412048 73.09336853 C15.24876503 73.08954334 19.38337466 73.07971306 23.51800537 73.06866455 C27.73400398 73.05845044 31.95000822 73.05387091 36.16601562 73.04882812 C44.44402647 73.03809079 52.7220089 73.02101436 61 73 C61 69.7 61 66.4 61 63 C40.87 63 20.74 63 0 63 C0 42.87 0 22.74 0 2 C-3.3 2 -6.6 2 -10 2 Z " fill="#DCF5EF" transform="translate(194,151)"/>
<path d="M0 0 C0.66 0 1.32 0 2 0 C2.33 2.97 2.66 5.94 3 9 C32.7 9.495 32.7 9.495 63 10 C63 30.13 63 50.26 63 71 C66.3 71 69.6 71 73 71 C73 47.57 73 24.14 73 0 C73.66 0 74.32 0 75 0 C75.19945986 3.1660296 75.38234428 6.33281796 75.5625 9.5 C75.64661133 10.8303125 75.64661133 10.8303125 75.73242188 12.1875 C75.78076172 13.0640625 75.82910156 13.940625 75.87890625 14.84375 C75.94960327 16.03774414 75.94960327 16.03774414 76.02172852 17.25585938 C75.99885783 20.14424658 75.61559775 22.91318051 75.23130798 25.7718811 C74.8035824 29.89203051 74.89918564 34.01474184 74.9375 38.15234375 C74.94128662 39.09308243 74.94507324 40.03382111 74.94897461 41.00306702 C74.96110782 43.98125987 74.97975852 46.95935192 75 49.9375 C75.02649368 53.8841116 75.04650014 57.83067732 75.0625 61.77734375 C75.07494751 63.14281593 75.07494751 63.14281593 75.08764648 64.53587341 C75.09617118 66.69076347 75.05347839 68.84575677 75 71 C74.67 71.33 74.34 71.66 74 72 C69.71 72 65.42 72 61 72 C61 52.2 61 32.4 61 12 C58.36 12.33 55.72 12.66 53 13 C51.10684932 13.05305867 49.21179282 13.06349543 47.31835938 13.02172852 C46.27788452 13.00163223 45.23740967 12.98153595 44.16540527 12.96083069 C43.06925903 12.93379562 41.97311279 12.90676056 40.84375 12.87890625 C39.12943787 12.84348976 39.12943787 12.84348976 37.38049316 12.80735779 C33.753521 12.73118318 30.1267877 12.64696142 26.5 12.5625 C24.03126143 12.50923301 21.56251144 12.45649298 19.09375 12.40429688 C13.06235431 12.27563103 7.03113406 12.14036927 1 12 C0.03929566 9.11788698 -0.10581883 7.30149956 -0.0625 4.3125 C-0.05347656 3.50425781 -0.04445313 2.69601563 -0.03515625 1.86328125 C-0.02355469 1.24839844 -0.01195312 0.63351563 0 0 Z " fill="#E3F7D4" transform="translate(275,60)"/>
<path d="M0 0 C2.64 0 5.28 0 8 0 C9.45189241 4.65962584 8.41288284 7.51086096 6.71875 12.00390625 C6.3451963 13.01173912 6.3451963 13.01173912 5.96409607 14.03993225 C5.15401333 16.21852955 4.32709539 18.39031161 3.5 20.5625 C2.94077139 22.05792039 2.38291439 23.55385441 1.82641602 25.05029297 C0.99525703 27.28482754 0.16328029 29.51900856 -0.67344666 31.75146484 C-3.18089385 38.44488156 -5.54600404 45.18336636 -7.85546875 51.94750977 C-12.01251446 64.01251446 -12.01251446 64.01251446 -15 67 C-17.05859375 67.30078125 -17.05859375 67.30078125 -19.4375 67.3125 C-20.61119141 67.33763672 -20.61119141 67.33763672 -21.80859375 67.36328125 C-24.61061345 66.89877531 -25.21169974 66.18982045 -27 64 C-28.17919922 61.32714844 -28.17919922 61.32714844 -29.3046875 58.109375 C-29.72121582 56.93084961 -30.13774414 55.75232422 -30.56689453 54.53808594 C-31.00320369 53.27548528 -31.43923432 52.01278834 -31.875 50.75 C-32.32211992 49.47406151 -32.76987456 48.19834527 -33.21826172 46.92285156 C-36.23619287 38.31283503 -39.19465543 29.68180319 -42 21 C-44.20935697 23.20935697 -44.68499066 24.5699957 -45.65625 27.5 C-45.95660156 28.386875 -46.25695312 29.27375 -46.56640625 30.1875 C-46.87449219 31.115625 -47.18257813 32.04375 -47.5 33 C-48.10916482 34.83514087 -48.72351332 36.66857153 -49.34375 38.5 C-49.61380859 39.3146875 -49.88386719 40.129375 -50.16210938 40.96875 C-51 43 -51 43 -53 45 C-52.67 41.37 -52.34 37.74 -52 34 C-51.34 34 -50.68 34 -50 34 C-50.061875 33.154375 -50.12375 32.30875 -50.1875 31.4375 C-49.95984372 27.26380157 -48.79792186 24.74567053 -47 21 C-46.34 21 -45.68 21 -45 21 C-44.67 19.35 -44.34 17.7 -44 16 C-42.125 16.65234375 -42.125 16.65234375 -40 18 C-38.875 20.50390625 -38.875 20.50390625 -38 23.5625 C-36.83866676 27.38351407 -35.63789639 31.0108495 -33.9375 34.625 C-32.11760342 38.55740399 -30.8485424 42.52880777 -29.66015625 46.69140625 C-28.85957753 49.49106321 -27.94241868 52.2452377 -27 55 C-26.34 55 -25.68 55 -25 55 C-24.67 57.97 -24.34 60.94 -24 64 C-19.545 63.505 -19.545 63.505 -15 63 C-13.02 57.06 -11.04 51.12 -9 45 C-8.34 45 -7.68 45 -7 45 C-6.90203125 44.2265625 -6.8040625 43.453125 -6.703125 42.65625 C-6.55359375 41.6146875 -6.4040625 40.573125 -6.25 39.5 C-6.11078125 38.4790625 -5.9715625 37.458125 -5.828125 36.40625 C-4.97914398 32.91421486 -3.70787973 30.24767919 -2.04736328 27.09277344 C-0.31694395 23.63516166 0.92423617 20.02369968 2.1875 16.375 C2.44724609 15.65054688 2.70699219 14.92609375 2.97460938 14.1796875 C4.39267048 10.1343659 5.44081047 6.27139953 6 2 C4.02 1.67 2.04 1.34 0 1 C0 0.67 0 0.34 0 0 Z " fill="#FDEFCC" transform="translate(308,107)"/>
<path d="M0 0 C2.3125 -0.36328125 2.3125 -0.36328125 5 -0.3125 C5.886875 -0.30863281 6.77375 -0.30476563 7.6875 -0.30078125 C10 0 10 0 12 2 C12.67578125 3.9609375 12.67578125 3.9609375 13.3125 6.375 C14.3865165 10.12874083 15.63970941 13.66618956 17.1875 17.25 C19.77531666 23.29882299 22.05789075 29.44485281 24.3125 35.625 C24.67432373 36.61016602 25.03614746 37.59533203 25.40893555 38.61035156 C25.74449463 39.53557617 26.08005371 40.46080078 26.42578125 41.4140625 C26.72911377 42.2488916 27.03244629 43.0837207 27.3449707 43.94384766 C28 46 28 46 28 48 C28.66 48 29.32 48 30 48 C30.22816406 46.9790625 30.45632813 45.958125 30.69140625 44.90625 C32.17740841 38.96746916 34.24307572 33.2215826 36.25854492 27.44580078 C36.93560849 25.50542084 37.60789057 23.56343759 38.27929688 21.62109375 C40.44340756 15.38355266 42.6408347 9.16653109 45 3 C45.98464471 6.45990684 45.8701001 8.3018487 44.75 11.75 C44.46640625 12.63042969 44.1828125 13.51085937 43.890625 14.41796875 C42.89224922 17.31238275 41.84111859 20.17909031 40.73828125 23.03515625 C39.99679018 25.00854253 39.33586956 26.99422517 38.6875 29 C36.36378839 36.0835725 33.64233524 43.0307339 31 50 C29.68 50 28.36 50 27 50 C23.50130204 42.81757678 20.55124552 35.45374971 17.6875 28 C17.32591797 27.06776611 16.96433594 26.13553223 16.59179688 25.17504883 C16.25599609 24.29228271 15.92019531 23.4095166 15.57421875 22.5 C15.27088623 21.7059375 14.96755371 20.911875 14.6550293 20.09375 C14 18 14 18 14 15 C13.34 15 12.68 15 12 15 C11.49242138 13.58603098 10.99425075 12.16868271 10.5 10.75 C10.2215625 9.96109375 9.943125 9.1721875 9.65625 8.359375 C9 6 9 6 9 2 C6.69 2 4.38 2 2 2 C1.82984375 2.64066406 1.6596875 3.28132813 1.484375 3.94140625 C-0.73734177 11.8710443 -0.73734177 11.8710443 -3 15.5 C-5.10877247 18.92675527 -6.13931267 22.39257336 -7.21484375 26.25390625 C-8.07073252 29.24738785 -9.05573483 32.1790045 -10.0625 35.125 C-11.2361439 38.57064132 -12.25208272 41.93911948 -13 45.5 C-14.04723769 49.1653319 -15.06152803 50.64922243 -18 53 C-20 50 -20 50 -19.625 47.8125 C-19.41875 47.214375 -19.2125 46.61625 -19 46 C-18.34 46.33 -17.68 46.66 -17 47 C-16.65219482 45.95134766 -16.30438965 44.90269531 -15.94604492 43.82226562 C-14.64486911 39.90052303 -13.34165116 35.97946151 -12.0378418 32.05859375 C-11.47576819 30.36737025 -10.91423517 28.67596698 -10.35327148 26.984375 C-9.54295534 24.54118178 -8.73064296 22.09865973 -7.91796875 19.65625 C-7.67096725 18.91008423 -7.42396576 18.16391846 -7.16947937 17.3951416 C-2.74312627 4.11468941 -2.74312627 4.11468941 0 0 Z " fill="#FEEFCB" transform="translate(260,107)"/>
<path d="M0 0 C1.32 0.33 2.64 0.66 4 1 C3.67 2.98 3.34 4.96 3 7 C4.32 7.33 5.64 7.66 7 8 C6.34 8 5.68 8 5 8 C5 27.47 5 46.94 5 67 C3.35 67 1.7 67 0 67 C0 44.89 0 22.78 0 0 Z " fill="#E75C21" transform="translate(187,62)"/>
<path d="M0 0 C0.99 0 1.98 0 3 0 C3.05395478 1.62463842 3.09277195 3.24978541 3.125 4.875 C3.14820313 5.77992187 3.17140625 6.68484375 3.1953125 7.6171875 C3 10 3 10 1 12 C-1.4803772 12.24050903 -1.4803772 12.24050903 -4.64306641 12.22705078 C-5.84068604 12.22680908 -7.03830566 12.22656738 -8.2722168 12.22631836 C-9.53590088 12.21608643 -10.79958496 12.20585449 -12.1015625 12.1953125 C-13.25938232 12.19329834 -14.41720215 12.19128418 -15.61010742 12.18920898 C-19.94844506 12.17871964 -24.28672638 12.15079724 -28.625 12.125 C-43.165625 12.063125 -43.165625 12.063125 -58 12 C-58 31.8 -58 51.6 -58 72 C-62.29 72 -66.58 72 -71 72 C-71.13062152 63.31610049 -71.26105372 54.6321982 -71.39115143 45.94829082 C-71.45156676 41.91612763 -71.51206549 37.88396573 -71.57275391 33.85180664 C-71.6313045 29.96148274 -71.68963719 26.07115563 -71.74781799 22.18082619 C-71.77006754 20.69565527 -71.79239596 19.21048553 -71.81480408 17.725317 C-71.84614512 15.64720332 -71.8772072 13.56908565 -71.90820312 11.4909668 C-71.92596802 10.30738083 -71.94373291 9.12379486 -71.96203613 7.90434265 C-71.9877605 5.93635587 -72 3.9681549 -72 2 C-71.34 2 -70.68 2 -70 2 C-70 24.77 -70 47.54 -70 71 C-66.37 71 -62.74 71 -59 71 C-59 50.87 -59 30.74 -59 10 C-39.53 10 -20.06 10 0 10 C0 6.7 0 3.4 0 0 Z " fill="#FEE0CF" transform="translate(254,60)"/>
<path d="M0 0 C0.66 0 1.32 0 2 0 C2.33 2.64 2.66 5.28 3 8 C32.205 8.495 32.205 8.495 62 9 C62 29.13 62 49.26 62 70 C64.64 70 67.28 70 70 70 C70 46.9 70 23.8 70 0 C70.33 0 70.66 0 71 0 C71 23.43 71 46.86 71 71 C67.7 71 64.4 71 61 71 C61 50.87 61 30.74 61 10 C41.29893661 10.03961196 41.29893661 10.03961196 21.59790039 10.09008789 C19.13948612 10.09300678 16.68107136 10.0955554 14.22265625 10.09765625 C12.9322644 10.10277222 11.64187256 10.10788818 10.31237793 10.11315918 C8.48531311 10.11334045 8.48531311 10.11334045 6.62133789 10.11352539 C5.02582848 10.11685631 5.02582848 10.11685631 3.39808655 10.12025452 C1 10 1 10 0 9 C-0.07179964 7.48071962 -0.08392007 5.95832518 -0.0625 4.4375 C-0.05347656 3.61121094 -0.04445313 2.78492188 -0.03515625 1.93359375 C-0.02355469 1.29550781 -0.01195312 0.65742187 0 0 Z " fill="#B5D88C" transform="translate(277,60)"/>
<path d="M0 0 C2.31 0 4.62 0 7 0 C7.20157715 0.74161377 7.4031543 1.48322754 7.61083984 2.24731445 C8.52659466 5.60394247 9.45069253 8.95821753 10.375 12.3125 C10.69210937 13.47974609 11.00921875 14.64699219 11.3359375 15.84960938 C11.6453125 16.96787109 11.9546875 18.08613281 12.2734375 19.23828125 C12.55622559 20.26993408 12.83901367 21.30158691 13.13037109 22.36450195 C13.93172625 25.18580108 13.93172625 25.18580108 16 28 C16 28.99 16 29.98 16 31 C15.01 30.67 14.02 30.34 13 30 C13 29.34 13 28.68 13 28 C12.01 27.67 11.02 27.34 10 27 C10 25.35 10 23.7 10 22 C9.34 22 8.68 22 8 22 C7.34 18.7 6.68 15.4 6 12 C4.35 11.67 2.7 11.34 1 11 C1 11.66 1 12.32 1 13 C0.34 13 -0.32 13 -1 13 C-1.33 13.66 -1.66 14.32 -2 15 C-1.85930804 12.87465341 -1.71229079 10.74972471 -1.5625 8.625 C-1.48128906 7.44164063 -1.40007812 6.25828125 -1.31640625 5.0390625 C-1 2 -1 2 0 0 Z " fill="#FAB31E" transform="translate(262,109)"/>
<path d="M0 0 C2.64 0 5.28 0 8 0 C9.45189241 4.65962584 8.41288284 7.51086096 6.71875 12.00390625 C6.3451963 13.01173912 6.3451963 13.01173912 5.96409607 14.03993225 C5.15401333 16.21852955 4.32709539 18.39031161 3.5 20.5625 C2.94077139 22.05792039 2.38291439 23.55385441 1.82641602 25.05029297 C0.99525703 27.28482754 0.16328029 29.51900856 -0.67344666 31.75146484 C-3.18089385 38.44488156 -5.54600404 45.18336636 -7.85546875 51.94750977 C-12.01251446 64.01251446 -12.01251446 64.01251446 -15 67 C-17.05859375 67.30078125 -17.05859375 67.30078125 -19.4375 67.3125 C-20.61119141 67.33763672 -20.61119141 67.33763672 -21.80859375 67.36328125 C-24.46127163 66.92353251 -25.322967 66.04371546 -27 64 C-26.67 63.01 -26.34 62.02 -26 61 C-25.67 62.32 -25.34 63.64 -25 65 C-21.7 65 -18.4 65 -15 65 C-14.566875 63.55625 -14.13375 62.1125 -13.6875 60.625 C-12.125 55.41666667 -10.5625 50.20833333 -9 45 C-8.34 45 -7.68 45 -7 45 C-6.90203125 44.2265625 -6.8040625 43.453125 -6.703125 42.65625 C-6.55359375 41.6146875 -6.4040625 40.573125 -6.25 39.5 C-6.11078125 38.4790625 -5.9715625 37.458125 -5.828125 36.40625 C-4.97914398 32.91421486 -3.70787973 30.24767919 -2.04736328 27.09277344 C-0.31694395 23.63516166 0.92423617 20.02369968 2.1875 16.375 C2.44724609 15.65054688 2.70699219 14.92609375 2.97460938 14.1796875 C4.39267048 10.1343659 5.44081047 6.27139953 6 2 C3.03 1.505 3.03 1.505 0 1 C0 0.67 0 0.34 0 0 Z " fill="#FEF0CD" transform="translate(308,107)"/>
<path d="M0 0 C1.15027679 0.02220612 2.30055359 0.04441223 3.48568726 0.06729126 C4.78688507 0.08746307 6.08808289 0.10763489 7.42871094 0.12841797 C8.85444623 0.16072361 10.28017653 0.19325042 11.7059021 0.22598267 C13.16034406 0.25214559 14.61480239 0.27741294 16.0692749 0.30181885 C19.89996017 0.36851137 23.7303019 0.4473947 27.56069946 0.52877808 C31.46834107 0.60965795 35.37618438 0.67906301 39.2840271 0.74942017 C46.95354233 0.88920156 54.62273092 1.04185617 62.2918396 1.20254517 C62.2918396 4.17254517 62.2918396 7.14254517 62.2918396 10.20254517 C43.1518396 10.20254517 24.0118396 10.20254517 4.2918396 10.20254517 C4.2918396 9.87254517 4.2918396 9.54254517 4.2918396 9.20254517 C22.7718396 9.20254517 41.2518396 9.20254517 60.2918396 9.20254517 C59.7968396 6.23254517 59.7968396 6.23254517 59.2918396 3.20254517 C27.6118396 2.70754517 27.6118396 2.70754517 -4.7081604 2.20254517 C-2.7081604 0.20254517 -2.7081604 0.20254517 0 0 Z " fill="#D67149" transform="translate(191.70816040039063,58.797454833984375)"/>
<path d="M0 0 C1.43583001 -0.10836453 2.8740202 -0.18576167 4.3125 -0.25 C5.11300781 -0.29640625 5.91351563 -0.3428125 6.73828125 -0.390625 C9 0 9 0 10.62890625 1.6171875 C12.26430253 4.45932919 13.46009862 7.30909391 14.625 10.375 C15.05039063 11.47585937 15.47578125 12.57671875 15.9140625 13.7109375 C16.94070793 16.82041755 17.55963992 19.76090698 18 23 C15 19.25 15 19.25 15 17 C14.34 17 13.68 17 13 17 C12.67 14.03 12.34 11.06 12 8 C11.34 8 10.68 8 10 8 C9.34 6.02 8.68 4.04 8 2 C5.69 1.67 3.38 1.34 1 1 C3.39403339 7.28168939 5.80718079 13.54985586 8.34692383 19.77392578 C15.69063825 37.83480864 15.69063825 37.83480864 14 43 C12.63797263 39.61896735 11.28311079 36.23524602 9.9375 32.84765625 C8.50316286 29.24121388 7.03653822 25.64897891 5.5625 22.05859375 C4.72875653 19.9975617 3.89542213 17.93636412 3.0625 15.875 C2.6487915 14.87976318 2.23508301 13.88452637 1.80883789 12.85913086 C1.42977295 11.91303955 1.05070801 10.96694824 0.66015625 9.9921875 C0.31605713 9.15026855 -0.02804199 8.30834961 -0.38256836 7.44091797 C-1.09856304 4.61034668 -0.76938363 2.78819899 0 0 Z " fill="#FEEBC4" transform="translate(213,107)"/>
<path d="M0 0 C0.33 0 0.66 0 1 0 C1.19343095 7.49278014 1.37087859 14.9858154 1.53710938 22.47924805 C1.59558198 25.02946582 1.65774123 27.5796018 1.72363281 30.12963867 C1.81759748 33.79070139 1.898389 37.45185159 1.9765625 41.11328125 C2.00875885 42.2571077 2.0409552 43.40093414 2.0741272 44.579422 C2.10438492 46.17073189 2.10438492 46.17073189 2.13525391 47.79418945 C2.15746002 48.72906693 2.17966614 49.6639444 2.20254517 50.62715149 C2 53 2 53 0 56 C-2.4803772 56.32279968 -2.4803772 56.32279968 -5.64306641 56.2487793 C-6.82413971 56.22853195 -8.00521301 56.20828461 -9.22207642 56.18742371 C-11.14242203 56.13138725 -11.14242203 56.13138725 -13.1015625 56.07421875 C-14.40829926 56.04777786 -15.71503601 56.02133698 -17.06137085 55.99409485 C-20.53714862 55.92359384 -24.01223388 55.83488457 -27.48748779 55.74243164 C-31.03308663 55.65131377 -34.57903811 55.57734617 -38.125 55.50195312 C-45.08377629 55.35145974 -52.04197152 55.18173564 -59 55 C-59 57.31 -59 59.62 -59 62 C-59.66 62 -60.32 62 -61 62 C-61 59.36 -61 56.72 -61 54 C-41.2 54 -21.4 54 -1 54 C-0.67 36.18 -0.34 18.36 0 0 Z " fill="#5DC4E1" transform="translate(339,161)"/>
<path d="M0 0 C2.3828125 0.0234375 2.3828125 0.0234375 5.125 0.375 C6.03507812 0.48585937 6.94515625 0.59671875 7.8828125 0.7109375 C8.93082031 0.85402344 8.93082031 0.85402344 10 1 C10 1.33 10 1.66 10 2 C6.37 2.33 2.74 2.66 -1 3 C-1 22.47 -1 41.94 -1 62 C-20.47 62 -39.94 62 -60 62 C-60 61.67 -60 61.34 -60 61 C-40.86 61 -21.72 61 -2 61 C-2.02320313 56.76414062 -2.04640625 52.52828125 -2.0703125 48.1640625 C-2.08316978 44.79161701 -2.09401702 41.41917842 -2.10350037 38.04672241 C-2.11407217 34.48389792 -2.12820497 30.92116821 -2.15087891 27.35839844 C-2.17671832 23.272777 -2.18646444 19.18725631 -2.1953125 15.1015625 C-2.20563507 13.82133209 -2.21595764 12.54110168 -2.22659302 11.22207642 C-2.22681961 9.45046646 -2.22681961 9.45046646 -2.22705078 7.64306641 C-2.231492 6.59937897 -2.23593323 5.55569153 -2.24050903 4.4803772 C-2 2 -2 2 0 0 Z " fill="#E2FDFE" transform="translate(338,151)"/>
<path d="M0 0 C1.75766516 2.63649774 2.75366954 4.7402759 3.83984375 7.67578125 C4.18080078 8.58650391 4.52175781 9.49722656 4.87304688 10.43554688 C5.22431641 11.38494141 5.57558594 12.33433594 5.9375 13.3125 C8.59004404 20.5291268 8.59004404 20.5291268 11.7734375 27.51953125 C13 30 13 30 12.6875 32.375 C12.460625 32.91125 12.23375 33.4475 12 34 C7.42857143 26.71428571 7.42857143 26.71428571 8 22 C7.01 22 6.02 22 5 22 C6.1519314 28.59039241 6.1519314 28.59039241 8.1875 34.9375 C9 37 9 37 8 40 C2.58702226 30.37692846 -0.00548587 19.56321726 -3 9 C-2.34 9 -1.68 9 -1 9 C-0.938125 9.7425 -0.87625 10.485 -0.8125 11.25 C0.24185138 14.8185739 1.99909773 15.92245228 5 18 C4.54625 17.175 4.0925 16.35 3.625 15.5 C1.24796793 10.38023861 0 5.70154268 0 0 Z " fill="#F6BA3F" transform="translate(273,122)"/>
<path d="M0 0 C3 3.75 3 3.75 3 6 C3.99 6.33 4.98 6.66 6 7 C7.17535805 9.48529907 8.14978756 11.85700774 9.0625 14.4375 C9.32562988 15.15873047 9.58875977 15.87996094 9.85986328 16.62304688 C11.76954836 21.99561155 13.21118071 27.34226162 14 33 C14.99 33 15.98 33 17 33 C17.33 33.66 17.66 34.32 18 35 C17.67 35.99 17.34 36.98 17 38 C15.35 37.67 13.7 37.34 12 37 C12 35.35 12 33.7 12 32 C11.34 32 10.68 32 10 32 C10 30.68 10 29.36 10 28 C9.34 28 8.68 28 8 28 C7.72285156 27.00097656 7.44570312 26.00195312 7.16015625 24.97265625 C5.86343597 20.43127904 4.32308814 15.97549749 2.76757812 11.51757812 C1.46469786 7.69553359 0.54857244 4.0002642 0 0 Z " fill="#F8C96B" transform="translate(227,124)"/>
<path d="M0 0 C3.94364845 3.28637371 4.7173474 6.10988697 6 11 C7.24883768 14.03980646 8.6092697 17.02275698 10 20 C12.64 20 15.28 20 18 20 C20.62252548 14.09931767 22.83353577 8.08149603 25 2 C25.66 2 26.32 2 27 2 C26.34829317 9.0058484 25.06023557 18.93976443 20 24 C17.46875 24.265625 17.46875 24.265625 14.5 24.25 C13.5203125 24.25515625 12.540625 24.2603125 11.53125 24.265625 C9 24 9 24 7 22 C6.3676789 20.52304561 5.80027844 19.01778222 5.2734375 17.5 C4.9640625 16.613125 4.6546875 15.72625 4.3359375 14.8125 C4.01882812 13.884375 3.70171875 12.95625 3.375 12 C3.05015625 11.071875 2.7253125 10.14375 2.390625 9.1875 C0 2.27678571 0 2.27678571 0 0 Z " fill="#FEF1D0" transform="translate(228,150)"/>
<path d="M0 0 C0.66 0 1.32 0 2 0 C2.19945986 3.1660296 2.38234428 6.33281796 2.5625 9.5 C2.61857422 10.386875 2.67464844 11.27375 2.73242188 12.1875 C2.78076172 13.0640625 2.82910156 13.940625 2.87890625 14.84375 C2.9260376 15.63974609 2.97316895 16.43574219 3.02172852 17.25585938 C2.99885783 20.14424658 2.61559775 22.91318051 2.23130798 25.7718811 C1.8035824 29.89203051 1.89918564 34.01474184 1.9375 38.15234375 C1.94128662 39.09308243 1.94507324 40.03382111 1.94897461 41.00306702 C1.96110782 43.98125987 1.97975852 46.95935192 2 49.9375 C2.02649368 53.8841116 2.04650014 57.83067732 2.0625 61.77734375 C2.07079834 62.68765854 2.07909668 63.59797333 2.08764648 64.53587341 C2.09617118 66.69076347 2.05347839 68.84575677 2 71 C1 72 1 72 -1.50390625 72.09765625 C-2.51324219 72.08605469 -3.52257812 72.07445312 -4.5625 72.0625 C-6.08037109 72.04896484 -6.08037109 72.04896484 -7.62890625 72.03515625 C-8.41136719 72.02355469 -9.19382812 72.01195312 -10 72 C-10 71.67 -10 71.34 -10 71 C-6.7 71 -3.4 71 0 71 C0 47.57 0 24.14 0 0 Z " fill="#EBF8DC" transform="translate(348,60)"/>
<path d="M0 0 C1.53166168 4.08443115 0.63081652 7.79455657 0 12 C-0.99 12 -1.98 12 -3 12 C-3 14.31 -3 16.62 -3 19 C-2.34 19 -1.68 19 -1 19 C-0.34 17.68 0.32 16.36 1 15 C0.49228528 20.96564796 -1.38592128 25.63809899 -4 31 C-6.97 31 -9.94 31 -13 31 C-13 30.67 -13 30.34 -13 30 C-9.04 29.505 -9.04 29.505 -5 29 C-5 26.36 -5 23.72 -5 21 C-5.928125 21.309375 -5.928125 21.309375 -6.875 21.625 C-7.57625 21.74875 -8.2775 21.8725 -9 22 C-9.66 21.34 -10.32 20.68 -11 20 C-10.625 17.875 -10.625 17.875 -10 16 C-9.01 16.33 -8.02 16.66 -7 17 C-6.57847656 15.85660156 -6.15695312 14.71320313 -5.72265625 13.53515625 C-5.16941479 12.04421741 -4.61602153 10.55333489 -4.0625 9.0625 C-3.78470703 8.30775391 -3.50691406 7.55300781 -3.22070312 6.77539062 C-1.11328125 1.11328125 -1.11328125 1.11328125 0 0 Z " fill="#F6BD4E" transform="translate(297,140)"/>
<path d="M0 0 C2.64 0 5.28 0 8 0 C11.11562789 8.67488549 2.56387835 21.96939413 -1 30 C-2.24752897 26.25741309 -1.5279335 25.53837233 0 22 C0.67784992 19.66989091 1.34416793 17.33640176 2 15 C2.66666667 13 3.33333333 11 4 9 C4.68798768 6.67215126 5.34547328 4.33759544 6 2 C5.01 2 4.02 2 3 2 C2.34 5.3 1.68 8.6 1 12 C0.34 12 -0.32 12 -1 12 C-1.66 13.32 -2.32 14.64 -3 16 C-2.152874 10.63486869 -1.08318169 5.3212615 0 0 Z " fill="#F6C86A" transform="translate(306,108)"/>
<path d="M0 0 C0.33 0 0.66 0 1 0 C0.91110482 1.66755093 0.80293767 3.33407605 0.6875 5 C0.62949219 5.928125 0.57148438 6.85625 0.51171875 7.8125 C-0.01428168 11.08896068 -0.95017526 13.79775833 -2.16430664 16.8671875 C-3.59985246 20.5309118 -4.81748775 24.26814743 -6.0625 28 C-6.44631836 29.13308594 -6.44631836 29.13308594 -6.83789062 30.2890625 C-8.06895469 33.97276062 -9.17578269 37.62089278 -10.05078125 41.40625 C-11.04566055 45.1728712 -12.00354189 46.60283351 -15 49 C-17 46 -17 46 -16.625 43.8125 C-16.41875 43.214375 -16.2125 42.61625 -16 42 C-15.34 42.33 -14.68 42.66 -14 43 C-12.32567923 38.00187356 -10.65338381 33.00307565 -8.98291016 28.00366211 C-8.41509863 26.30523667 -7.84674722 24.60699162 -7.27783203 22.90893555 C-6.45721546 20.45930167 -5.63858315 18.00901211 -4.8203125 15.55859375 C-4.44206833 14.43160316 -4.44206833 14.43160316 -4.05618286 13.28184509 C-2.58933974 8.88177719 -1.24153997 4.46902872 0 0 Z " fill="#FDEABE" transform="translate(257,111)"/>
<path d="M0 0 C0.91058531 3.07322544 1.08886184 5.80097361 1 9 C1.66 9 2.32 9 3 9 C3 8.34 3 7.68 3 7 C4.65 7.33 6.3 7.66 8 8 C10.42857143 14.28571429 10.42857143 14.28571429 9 18 C8.54625 16.865625 8.0925 15.73125 7.625 14.5625 C6.42904194 10.95278308 6.42904194 10.95278308 4 10 C3.67 11.65 3.34 13.3 3 15 C2.34 15 1.68 15 1 15 C0.67 16.65 0.34 18.3 0 20 C-0.33 20 -0.66 20 -1 20 C-1.33 18.02 -1.66 16.04 -2 14 C-2.66 14 -3.32 14 -4 14 C-4.66 16.31 -5.32 18.62 -6 21 C-7.27362986 17.44853211 -6.73319753 15.59992911 -5.25 12.1875 C-4.87875 11.31738281 -4.5075 10.44726562 -4.125 9.55078125 C-3.568125 8.28814453 -3.568125 8.28814453 -3 7 C-2.41604187 5.62526523 -1.83261392 4.25030498 -1.25 2.875 C-0.8375 1.92625 -0.425 0.9775 0 0 Z " fill="#F5BE47" transform="translate(260,113)"/>
<path d="M0 0 C0.33 0.99 0.66 1.98 1 3 C1.66 3 2.32 3 3 3 C9 19.10679612 9 19.10679612 9 23 C7.68 23 6.36 23 5 23 C4.67 20.69 4.34 18.38 4 16 C3.34 16 2.68 16 2 16 C1.46530198 14.27507022 0.94780825 12.544802 0.4375 10.8125 C0.14746094 9.84957031 -0.14257812 8.88664063 -0.44140625 7.89453125 C-1.02461026 4.87247412 -0.81178385 2.94070045 0 0 Z " fill="#F8B320" transform="translate(227,131)"/>
<path d="M0 0 C2.3125 -0.36328125 2.3125 -0.36328125 5 -0.3125 C5.886875 -0.30863281 6.77375 -0.30476563 7.6875 -0.30078125 C10 0 10 0 12 2 C12.52734375 4.35546875 12.52734375 4.35546875 12.9375 7.1875 C13.50780693 10.70132657 14.15059525 13.72397189 15.6875 16.9375 C17 20 17 20 16 24 C15.34 21.03 14.68 18.06 14 15 C13.34 15 12.68 15 12 15 C11.49242138 13.58603098 10.99425075 12.16868271 10.5 10.75 C10.2215625 9.96109375 9.943125 9.1721875 9.65625 8.359375 C9 6 9 6 9 2 C6.69 2 4.38 2 2 2 C1.80664062 2.71027344 1.61328125 3.42054687 1.4140625 4.15234375 C1.15367187 5.07144531 0.89328125 5.99054688 0.625 6.9375 C0.36976563 7.85402344 0.11453125 8.77054688 -0.1484375 9.71484375 C-1 12 -1 12 -3 13 C-2.88557539 11.39504433 -2.75805306 9.79101881 -2.625 8.1875 C-2.55539062 7.29417969 -2.48578125 6.40085937 -2.4140625 5.48046875 C-2 3 -2 3 0 0 Z " fill="#FADDA1" transform="translate(260,107)"/>
<path d="M0 0 C0.33 1.32 0.66 2.64 1 4 C1.66 4 2.32 4 3 4 C2.7215625 4.8971875 2.7215625 4.8971875 2.4375 5.8125 C1.77906313 8.16408762 1.77906313 8.16408762 3 11 C3.35236497 12.99673484 3.68834559 14.99650739 4 17 C5.98 17.33 7.96 17.66 10 18 C10 18.33 10 18.66 10 19 C7.36 19 4.72 19 2 19 C0.98422665 17.30099815 -0.0119898 15.59029549 -1 13.875 C-1.8353125 12.44800781 -1.8353125 12.44800781 -2.6875 10.9921875 C-4.11630654 7.73484878 -4.25041309 5.5162171 -4 2 C-2.68 2 -1.36 2 0 2 C0 1.34 0 0.68 0 0 Z " fill="#F7BF4B" transform="translate(236,152)"/>
<path d="M0 0 C0.99 0 1.98 0 3 0 C2.71831703 1.95979427 2.42433283 3.91782378 2.125 5.875 C1.96257812 6.96554688 1.80015625 8.05609375 1.6328125 9.1796875 C1 12 1 12 -1 14 C-1.57510868 16.32173505 -1.9509944 18.64438348 -2.33984375 21.00390625 C-2.55769531 21.66261719 -2.77554687 22.32132813 -3 23 C-3.99 23.33 -4.98 23.66 -6 24 C-5.85923685 22.0412957 -5.7122324 20.08303907 -5.5625 18.125 C-5.48128906 17.03445312 -5.40007812 15.94390625 -5.31640625 14.8203125 C-5 12 -5 12 -4 10 C-3.34 10 -2.68 10 -2 10 C-1.34 6.7 -0.68 3.4 0 0 Z " fill="#F9B318" transform="translate(309,110)"/>
<path d="M0 0 C0.66 0 1.32 0 2 0 C2 22.77 2 45.54 2 69 C1.67 69 1.34 69 1 69 C0.86934865 60.44648481 0.73894193 51.89296594 0.60884857 43.33944225 C0.54843505 39.36781317 0.48793687 35.39618541 0.42724609 31.42456055 C0.36869251 27.59259143 0.31036017 23.76061901 0.25218201 19.92864418 C0.22993367 18.46580192 0.20760526 17.00296088 0.18519592 15.54012108 C0.1538517 13.49314051 0.12279072 11.44615582 0.09179688 9.39916992 C0.07403198 8.23334885 0.05626709 7.06752777 0.03796387 5.86637878 C0.01206643 3.91104974 0 1.95550054 0 0 Z " fill="#FBD7C3" transform="translate(182,62)"/>
<path d="M0 0 C0.79148438 -0.03738281 1.58296875 -0.07476562 2.3984375 -0.11328125 C4.625 0.3125 4.625 0.3125 6.25 1.93359375 C7.89133937 4.77329737 9.08480683 7.62082594 10.25 10.6875 C10.67539063 11.78835937 11.10078125 12.88921875 11.5390625 14.0234375 C12.56570793 17.13291755 13.18463992 20.07340698 13.625 23.3125 C10.625 19.5625 10.625 19.5625 10.625 17.3125 C9.965 17.3125 9.305 17.3125 8.625 17.3125 C8.295 14.3425 7.965 11.3725 7.625 8.3125 C6.965 8.3125 6.305 8.3125 5.625 8.3125 C4.965 6.3325 4.305 4.3525 3.625 2.3125 C1.315 1.9825 -0.995 1.6525 -3.375 1.3125 C-3.045 4.2825 -2.715 7.2525 -2.375 10.3125 C-5.15367692 7.53382308 -5.02693902 5.1411708 -5.375 1.3125 C-3.79602167 -0.26647833 -2.18137428 0.06706491 0 0 Z " fill="#FEF4D8" transform="translate(217.375,106.6875)"/>
<path d="M0 0 C0.33 0 0.66 0 1 0 C0.49450629 8.34936165 -1.14285345 15.55286857 -5 23 C-5.66 23 -6.32 23 -7 23 C-7 20.69 -7 18.38 -7 16 C-6.01 16 -5.02 16 -4 16 C-4.061875 14.824375 -4.12375 13.64875 -4.1875 12.4375 C-4.2034901 7.94428128 -3.03097522 4.98071143 -1 1 C-0.67 0.67 -0.34 0.34 0 0 Z " fill="#FAB218" transform="translate(301,136)"/>
<path d="M0 0 C1.125 3.75 1.125 3.75 0 6 C-0.27024708 8.29924497 -0.44497841 10.59801487 -0.62109375 12.90625 C-1 15 -1 15 -3 17 C-3.58383332 18.8353038 -4.09711381 20.69364552 -4.5625 22.5625 C-5.90277778 27.90277778 -5.90277778 27.90277778 -7 29 C-8.66617115 29.04063832 -10.33388095 29.042721 -12 29 C-11.67 28.34 -11.34 27.68 -11 27 C-10.01 27.33 -9.02 27.66 -8 28 C-7.896875 27.22140625 -7.79375 26.4428125 -7.6875 25.640625 C-6.7918868 20.89794601 -5.40889233 16.36212866 -4 11.75 C-3.72671875 10.83992187 -3.4534375 9.92984375 -3.171875 8.9921875 C-1.14074248 2.28148496 -1.14074248 2.28148496 0 0 Z " fill="#F5C051" transform="translate(252,134)"/>
<path d="M0 0 C0.33 0 0.66 0 1 0 C1 2.64 1 5.28 1 8 C-0.98 8.99 -0.98 8.99 -3 10 C-2.67 10.99 -2.34 11.98 -2 13 C-3.98 13 -5.96 13 -8 13 C-9.17076699 9.01939223 -10.25749403 5.08378283 -11 1 C-9.62437146 2.28965176 -8.29233607 3.62689293 -7 5 C-7 5.66 -7 6.32 -7 7 C-5.35 6.67 -3.7 6.34 -2 6 C-1.34 4.02 -0.68 2.04 0 0 Z " fill="#F9B40E" transform="translate(247,156)"/>
<path d="M0 0 C0.66 0 1.32 0 2 0 C1.43974507 6.30286798 -0.25187058 12.28578606 -3 18 C-6.20380017 20.13586678 -7.01939967 20.23132175 -10.6875 20.125 C-11.89986328 20.09792969 -11.89986328 20.09792969 -13.13671875 20.0703125 C-13.75160156 20.04710937 -14.36648437 20.02390625 -15 20 C-15 19.67 -15 19.34 -15 19 C-13.741875 18.979375 -12.48375 18.95875 -11.1875 18.9375 C-8.97818957 18.71595555 -8.97818957 18.71595555 -7 18 C-5.46165009 15.47271086 -4.80345483 13.7760086 -4 11 C-3.27897704 9.01785202 -2.54946038 7.03877784 -1.8125 5.0625 C-1.2063463 3.37571273 -0.60149296 1.68845486 0 0 Z " fill="#FCE5B3" transform="translate(253,152)"/>
<path d="M0 0 C3.375 -0.1875 3.375 -0.1875 7 0 C9 3 9 3 9 7 C9.66 7 10.32 7 11 7 C11.33 8.65 11.66 10.3 12 12 C11.01 11.67 10.02 11.34 9 11 C8.67 9.02 8.34 7.04 8 5 C7.34 5 6.68 5 6 5 C4.375 3.5 4.375 3.5 3 2 C3.33 4.64 3.66 7.28 4 10 C1.16625119 6.79663178 0.4794463 4.21912747 0 0 Z " fill="#F4C463" transform="translate(214,108)"/>
<path d="M0 0 C0.99 0.33 1.98 0.66 3 1 C3 1.66 3 2.32 3 3 C3.66 3 4.32 3 5 3 C5.33 4.98 5.66 6.96 6 9 C5.67 9 5.34 9 5 9 C5 11.97 5 14.94 5 18 C3 17 3 17 1.9375 14.625 C0.68563934 9.78447213 0.33655904 4.97753105 0 0 Z " fill="#F5BB3B" transform="translate(217,110)"/>
<path d="M0 0 C0.33 0 0.66 0 1 0 C1 2.97 1 5.94 1 9 C-1.64 8.67 -4.28 8.34 -7 8 C-6.67 6.02 -6.34 4.04 -6 2 C-4.35 2.33 -2.7 2.66 -1 3 C-0.67 2.01 -0.34 1.02 0 0 Z " fill="#F9B212" transform="translate(292,160)"/>
<path d="M0 0 C1.41131097 3.76051848 0.5449072 6.02022244 -0.875 9.6875 C-1.42800781 11.14736328 -1.42800781 11.14736328 -1.9921875 12.63671875 C-3 15 -3 15 -4 16 C-5.51928038 16.07179964 -7.04167482 16.08392007 -8.5625 16.0625 C-9.38878906 16.05347656 -10.21507812 16.04445312 -11.06640625 16.03515625 C-12.02353516 16.01775391 -12.02353516 16.01775391 -13 16 C-13 15.67 -13 15.34 -13 15 C-10.36 14.67 -7.72 14.34 -5 14 C-5 12.741875 -5 11.48375 -5 10.1875 C-5 7.79166667 -5 5.39583333 -5 3 C-3.68 3.33 -2.36 3.66 -1 4 C-0.67 2.68 -0.34 1.36 0 0 Z " fill="#F4BD4C" transform="translate(297,155)"/>
<path d="M0 0 C3.32567493 1.66283747 3.84952723 5.35551397 5.0625 8.6875 C5.33126953 9.39583984 5.60003906 10.10417969 5.87695312 10.83398438 C7.37327465 14.87517193 8.45160012 18.70081574 9 23 C8.34 22.67 7.68 22.34 7 22 C7 20.68 7 19.36 7 18 C6.34 18 5.68 18 5 18 C5 16.68 5 15.36 5 14 C4.34 14 3.68 14 3 14 C2.49528803 12.23050388 1.99639315 10.45934777 1.5 8.6875 C1.2215625 7.70136719 0.943125 6.71523437 0.65625 5.69921875 C0 3 0 3 0 0 Z " fill="#FEEECE" transform="translate(231,130)"/>
<path d="M0 0 C2.6552219 1.32761095 3.1734933 3.08110807 4.26953125 5.74609375 C5.66671181 10.05718028 6.31288154 14.52968815 7 19 C7.66 19 8.32 19 9 19 C9.33 21.31 9.66 23.62 10 26 C5.19857474 22.34674165 4.2897454 17.42908163 2.75 11.875 C2.481875 10.95589844 2.21375 10.03679687 1.9375 9.08984375 C0 2.35801977 0 2.35801977 0 0 Z " fill="#F3C059" transform="translate(222,128)"/>
<path d="M0 0 C1.49197256 3.87912865 0.36647599 6.18825118 -1 10 C-1.35107008 11.51683715 -1.68346787 13.03808124 -2 14.5625 C-2.7052292 17.87595784 -3.59979224 20.89953995 -5 24 C-6.37432457 20.18243176 -5.67975039 16.92744671 -5 13 C-4.34 13 -3.68 13 -3 13 C-3.061875 12.154375 -3.12375 11.30875 -3.1875 10.4375 C-2.95984372 6.26380157 -1.79792186 3.74567053 0 0 Z " fill="#FCE3B1" transform="translate(261,128)"/>
<path d="M0 0 C1.43088528 2.86177057 0.59991697 4.93375773 0 8 C-0.66 8 -1.32 8 -2 8 C-1.979375 9.0725 -1.95875 10.145 -1.9375 11.25 C-1.9857984 14.14790424 -2.13155885 16.28612141 -3 19 C-3.66 19 -4.32 19 -5 19 C-5.33 20.98 -5.66 22.96 -6 25 C-6.33 25 -6.66 25 -7 25 C-6.2498704 17.49870399 -6.2498704 17.49870399 -5.05859375 15.12109375 C-3.71171224 12.42236068 -3.12019362 9.74701029 -2.4375 6.8125 C-1.10567823 1.10567823 -1.10567823 1.10567823 0 0 Z " fill="#F4C45E" transform="translate(258,133)"/>
<path d="M0 0 C2.64 0 5.28 0 8 0 C9.48275903 4.64361062 8.2812134 7.95513523 6.5625 12.3125 C6.31951172 12.95767578 6.07652344 13.60285156 5.82617188 14.26757812 C5.22862502 15.84931979 4.61582273 17.42528374 4 19 C2.77095835 15.49194072 3.25738169 13.41491529 4.4375 9.9375 C5.41006514 7.03724969 6 5.0823645 6 2 C3.03 1.505 3.03 1.505 0 1 C0 0.67 0 0.34 0 0 Z " fill="#FEF5D7" transform="translate(308,107)"/>
<path d="M0 0 C0.66 0 1.32 0 2 0 C1.55643705 6.20988129 0.08467498 10.60540561 -3 16 C-4.13441522 12.17838846 -3.61768994 10.66108777 -2 7 C-1.31320058 4.67251306 -0.64238957 2.34013344 0 0 Z " fill="#F6C054" transform="translate(302,124)"/>
<path d="M0 0 C0.33 0 0.66 0 1 0 C0.71303083 7.54728918 -0.34165686 14.29073674 -4 21 C-4.66 21.33 -5.32 21.66 -6 22 C-4.47536437 14.50387484 -2.31993846 7.28640866 0 0 Z " fill="#FFF4D9" transform="translate(257,111)"/>
<path d="M0 0 C2.04648515 6.00117942 -1.14017456 12.03959799 -3.5625 17.5625 C-5 20 -5 20 -7 21 C-4.96192707 13.8821847 -2.59655258 6.93292719 0 0 Z " fill="#FFF3D9" transform="translate(305,110)"/>
<path d="M0 0 C-0.99 0.33 -1.98 0.66 -3 1 C-3.12117188 1.69867188 -3.24234375 2.39734375 -3.3671875 3.1171875 C-3.53476562 4.02726562 -3.70234375 4.93734375 -3.875 5.875 C-4.03742188 6.77992187 -4.19984375 7.68484375 -4.3671875 8.6171875 C-5 11 -5 11 -7 13 C-6.88655624 10.8535247 -6.75893655 8.70779408 -6.625 6.5625 C-6.52058594 4.77005859 -6.52058594 4.77005859 -6.4140625 2.94140625 C-6.27742188 1.97074219 -6.14078125 1.00007813 -6 0 C-3.50907189 -1.24546405 -2.58919267 -0.7767578 0 0 Z " fill="#F8B40A" transform="translate(267,111)"/>
<path d="M0 0 C1.65 0.33 3.3 0.66 5 1 C7.42857143 7.28571429 7.42857143 7.28571429 6 11 C5.54625 9.865625 5.0925 8.73125 4.625 7.5625 C3.42904194 3.95278308 3.42904194 3.95278308 1 3 C0.67 4.65 0.34 6.3 0 8 C-0.98120464 4.94736336 -0.98120464 3.05263664 0 0 Z " fill="#F7CE75" transform="translate(263,120)"/>
<path d="M0 0 C0.33 0.66 0.66 1.32 1 2 C1.66 2 2.32 2 3 2 C3.33 4.97 3.66 7.94 4 11 C6.97 11 9.94 11 13 11 C13 11.33 13 11.66 13 12 C9.7 12 6.4 12 3 12 C0 4.5 0 4.5 0 0 Z " fill="#FAD691" transform="translate(280,160)"/>
<path d="M0 0 C0.99 0.33 1.98 0.66 3 1 C3 2.98 3 4.96 3 7 C1.35 7.33 -0.3 7.66 -2 8 C-1.125 1.125 -1.125 1.125 0 0 Z " fill="#F7B42A" transform="translate(256,126)"/>
<path d="M0 0 C0 0.99 0 1.98 0 3 C-1.74104353 4.74104353 -4.07364021 4.21311272 -6.4375 4.25 C-7.92056641 4.28867188 -7.92056641 4.28867188 -9.43359375 4.328125 C-10.28050781 4.21984375 -11.12742188 4.1115625 -12 4 C-12.66 3.01 -13.32 2.02 -14 1 C-12.73542969 1.01740234 -12.73542969 1.01740234 -11.4453125 1.03515625 C-10.34960938 1.04417969 -9.25390625 1.05320313 -8.125 1.0625 C-6.48917969 1.07990234 -6.48917969 1.07990234 -4.8203125 1.09765625 C-2.04822454 1.19744303 -2.04822454 1.19744303 0 0 Z " fill="#FFF8E3" transform="translate(249,170)"/>
<path d="M0 0 C0 2.93816921 -0.4482521 4.74728348 -1.375 7.5 C-1.63023437 8.2734375 -1.88546875 9.046875 -2.1484375 9.84375 C-3 12 -3 12 -5 15 C-4.63587085 9.23671456 -4.31126966 4.31126966 0 0 Z " fill="#FEE9BE" transform="translate(300,129)"/>
<path d="M0 0 C1.64750929 2.47126394 2.93723705 4.7609443 4.1875 7.4375 C4.55230469 8.19933594 4.91710937 8.96117187 5.29296875 9.74609375 C6.09093521 12.28988738 5.8852947 13.52455813 5 16 C1.45215029 10.62100206 0.29112169 6.41923331 0 0 Z " fill="#F4C763" transform="translate(280,140)"/>
<path d="M0 0 C0.33 0.99 0.66 1.98 1 3 C1.66 3 2.32 3 3 3 C3.33 5.97 3.66 8.94 4 12 C3.34 12 2.68 12 2 12 C-1.57142857 4.71428571 -1.57142857 4.71428571 0 0 Z " fill="#FAB306" transform="translate(227,131)"/>
<path d="M0 0 C2.31 0 4.62 0 7 0 C8.31626692 3.61973402 9 6.09567131 9 10 C8.34 10 7.68 10 7 10 C6.01 7.36 5.02 4.72 4 2 C2.68 2 1.36 2 0 2 C0 1.34 0 0.68 0 0 Z " fill="#F0B731" transform="translate(262,109)"/>
<path d="M0 0 C1.26724763 3.80174289 0.4750819 5.3511132 -1 9 C-1.66 9.66 -2.32 10.32 -3 11 C-5 8 -5 8 -4.625 5.8125 C-4.41875 5.214375 -4.2125 4.61625 -4 4 C-3.34 4.33 -2.68 4.66 -2 5 C-1.34 3.35 -0.68 1.7 0 0 Z " fill="#FFF4D7" transform="translate(245,149)"/>
<path d="M0 0 C0.625 1.8125 0.625 1.8125 1 4 C0.01 5.485 0.01 5.485 -1 7 C-2.32 6.34 -3.64 5.68 -5 5 C-4.67 3.68 -4.34 2.36 -4 1 C-3.01 1.33 -2.02 1.66 -1 2 C-0.67 1.34 -0.34 0.68 0 0 Z " fill="#FBD179" transform="translate(291,155)"/>
<path d="M0 0 C2.79081339 1.3954067 3.03903006 3.01419041 4.1875 5.875 C4.55230469 6.75929687 4.91710937 7.64359375 5.29296875 8.5546875 C6 11 6 11 5 14 C2.46690767 9.35796103 0.53484401 5.34844008 0 0 Z " fill="#F4C257" transform="translate(276,148)"/>
<path d="M0 0 C1 2 1 2 0.0625 5.125 C-0.288125 6.07375 -0.63875 7.0225 -1 8 C-1.66 8 -2.32 8 -3 8 C-3.33 8.99 -3.66 9.98 -4 11 C-3.38461538 3.49230769 -3.38461538 3.49230769 -1.4375 1 C-0.963125 0.67 -0.48875 0.34 0 0 Z " fill="#F7C460" transform="translate(302,144)"/>
<path d="M0 0 C3 1 3 1 4.25 3.3125 C5.0275526 6.09873015 4.98726527 7.33438378 4 10 C3.34 8.02 2.68 6.04 2 4 C1.34 4 0.68 4 0 4 C0 2.68 0 1.36 0 0 Z " fill="#FEEECD" transform="translate(226,120)"/>
<path d="M0 0 C1.46726798 3.81489674 0.43336419 6.29011622 -1 10 C-1.33 10 -1.66 10 -2 10 C-2 7.03 -2 4.06 -2 1 C-1.34 0.67 -0.68 0.34 0 0 Z " fill="#FAB53D" transform="translate(250,155)"/>
<path d="M0 0 C0.66 0 1.32 0 2 0 C2 0.99 2 1.98 2 3 C2.66 3 3.32 3 4 3 C4.33 5.31 4.66 7.62 5 10 C1.32769295 6.92000054 0.43197635 4.7517398 0 0 Z " fill="#FAD078" transform="translate(227,144)"/>
<path d="M0 0 C2 2 2 2 2 6 C2.66 6 3.32 6 4 6 C4.33 7.65 4.66 9.3 5 11 C4.01 10.67 3.02 10.34 2 10 C0.47839986 6.3962102 0 3.94779314 0 0 Z " fill="#F5C974" transform="translate(221,109)"/>
<path d="M0 0 C0.66 0 1.32 0 2 0 C2 5.28 2 10.56 2 16 C1.67 16 1.34 16 1 16 C0.83191581 13.89594609 0.66558052 11.79175242 0.5 9.6875 C0.4071875 8.51574219 0.314375 7.34398438 0.21875 6.13671875 C0.07635011 4.094806 0 2.0468721 0 0 Z " fill="#FCDECC" transform="translate(182,62)"/>
<path d="M0 0 C0.99 0.33 1.98 0.66 3 1 C3.33 3.64 3.66 6.28 4 9 C1.43135272 7.71567636 1.053461 6.63365249 0 4 C0 2.68 0 1.36 0 0 Z " fill="#FAB30C" transform="translate(221,118)"/>
<path d="M0 0 C0.66 0 1.32 0 2 0 C2 1.32 2 2.64 2 4 C2.66 4.33 3.32 4.66 4 5 C3.34 6.32 2.68 7.64 2 9 C2 7.68 2 6.36 2 5 C1.01 4.67 0.02 4.34 -1 4 C-0.67 2.68 -0.34 1.36 0 0 Z " fill="#F9B309" transform="translate(267,115)"/>
<path d="M0 0 C0.33 0 0.66 0 1 0 C1 1.98 1 3.96 1 6 C0.34 6 -0.32 6 -1 6 C-1.66 7.32 -2.32 8.64 -3 10 C-2.49287967 6.28111761 -1.88391785 3.26545761 0 0 Z " fill="#FDE0AA" transform="translate(306,134)"/>
<path d="M0 0 C0.66 0.33 1.32 0.66 2 1 C2 2.65 2 4.3 2 6 C1.01 6.33 0.02 6.66 -1 7 C-1.04254356 5.00045254 -1.04080783 2.99958364 -1 1 C-0.67 0.67 -0.34 0.34 0 0 Z " fill="#F8B30A" transform="translate(255,133)"/>
<path d="M0 0 C0.99 0.33 1.98 0.66 3 1 C3.33 3.31 3.66 5.62 4 8 C3.34 8 2.68 8 2 8 C1.34 5.36 0.68 2.72 0 0 Z " fill="#F8B30B" transform="translate(217,110)"/>
<path d="" fill="#FFFFFF" transform="translate(0,0)"/>
<path d="" fill="#FFFFFF" transform="translate(0,0)"/>
<path d="" fill="#FFFFFF" transform="translate(0,0)"/>
<path d="" fill="#FFFFFF" transform="translate(0,0)"/>
<path d="" fill="#FFFFFF" transform="translate(0,0)"/>
<path d="" fill="#FFFFFF" transform="translate(0,0)"/>
<path d="" fill="#FFFFFF" transform="translate(0,0)"/>
<path d="" fill="#FFFFFF" transform="translate(0,0)"/>
<path d="" fill="#FFFFFF" transform="translate(0,0)"/>
<path d="" fill="#FFFFFF" transform="translate(0,0)"/>
<path d="" fill="#FFFFFF" transform="translate(0,0)"/>
<path d="" fill="#FFFFFF" transform="translate(0,0)"/>
<path d="" fill="#FFFFFF" transform="translate(0,0)"/>
<path d="" fill="#FFFFFF" transform="translate(0,0)"/>
<path d="" fill="#FFFFFF" transform="translate(0,0)"/>
<path d="" fill="#FFFFFF" transform="translate(0,0)"/>
<path d="" fill="#FFFFFF" transform="translate(0,0)"/>
<path d="" fill="#FFFFFF" transform="translate(0,0)"/>
<path d="" fill="#FFFFFF" transform="translate(0,0)"/>
<path d="" fill="#FFFFFF" transform="translate(0,0)"/>
<path d="" fill="#FFFFFF" transform="translate(0,0)"/>
<path d="" fill="#FFFFFF" transform="translate(0,0)"/>
<path d="" fill="#FFFFFF" transform="translate(0,0)"/>
<path d="" fill="#FFFFFF" transform="translate(0,0)"/>
<path d="" fill="#FFFFFF" transform="translate(0,0)"/>
<path d="" fill="#FFFFFF" transform="translate(0,0)"/>
<path d="" fill="#FFFFFF" transform="translate(0,0)"/>
<path d="" fill="#FFFFFF" transform="translate(0,0)"/>
<path d="" fill="#FFFFFF" transform="translate(0,0)"/>
<path d="" fill="#FFFFFF" transform="translate(0,0)"/>
<path d="" fill="#FFFFFF" transform="translate(0,0)"/>
<path d="" fill="#FFFFFF" transform="translate(0,0)"/>
<path d="" fill="#FFFFFF" transform="translate(0,0)"/>
<path d="" fill="#FFFFFF" transform="translate(0,0)"/>
<path d="" fill="#FFFFFF" transform="translate(0,0)"/>
<path d="" fill="#FFFFFF" transform="translate(0,0)"/>
<path d="" fill="#FFFFFF" transform="translate(0,0)"/>
<path d="" fill="#FFFFFF" transform="translate(0,0)"/>
<path d="" fill="#FFFFFF" transform="translate(0,0)"/>
<path d="" fill="#FFFFFF" transform="translate(0,0)"/>
<path d="" fill="#FFFFFF" transform="translate(0,0)"/>
<path d="" fill="#FFFFFF" transform="translate(0,0)"/>
<path d="" fill="#FFFFFF" transform="translate(0,0)"/>
<path d="" fill="#FFFFFF" transform="translate(0,0)"/>
<path d="" fill="#FFFFFF" transform="translate(0,0)"/>
<path d="" fill="#FFFFFF" transform="translate(0,0)"/>
<path d="" fill="#FFFFFF" transform="translate(0,0)"/>
<path d="" fill="#FFFFFF" transform="translate(0,0)"/>
<path d="" fill="#FFFFFF" transform="translate(0,0)"/>
<path d="" fill="#FFFFFF" transform="translate(0,0)"/>
<path d="" fill="#FFFFFF" transform="translate(0,0)"/>
<path d="" fill="#FFFFFF" transform="translate(0,0)"/>
<path d="" fill="#FFFFFF" transform="translate(0,0)"/>
<path d="" fill="#FFFFFF" transform="translate(0,0)"/>
<path d="" fill="#FFFFFF" transform="translate(0,0)"/>
<path d="" fill="#FFFFFF" transform="translate(0,0)"/>
<path d="" fill="#FFFFFF" transform="translate(0,0)"/>
<path d="" fill="#FFFFFF" transform="translate(0,0)"/>
<path d="" fill="#FFFFFF" transform="translate(0,0)"/>
<path d="" fill="#FFFFFF" transform="translate(0,0)"/>
<path d="" fill="#FFFFFF" transform="translate(0,0)"/>
<path d="" fill="#FFFFFF" transform="translate(0,0)"/>
<path d="" fill="#FFFFFF" transform="translate(0,0)"/>
<path d="" fill="#FFFFFF" transform="translate(0,0)"/>
<path d="" fill="#FFFFFF" transform="translate(0,0)"/>
<path d="" fill="#FFFFFF" transform="translate(0,0)"/>
<path d="" fill="#FFFFFF" transform="translate(0,0)"/>
<path d="" fill="#FFFFFF" transform="translate(0,0)"/>
<path d="" fill="#FFFFFF" transform="translate(0,0)"/>
<path d="" fill="#FFFFFF" transform="translate(0,0)"/>
<path d="" fill="#FFFFFF" transform="translate(0,0)"/>
<path d="" fill="#FFFFFF" transform="translate(0,0)"/>
<path d="" fill="#0000FF" transform="translate(0,0)"/>
<path d="" fill="#FFFFFF" transform="translate(0,0)"/>
<path d="" fill="#FFFFFF" transform="translate(0,0)"/>
<path d="" fill="#FFFFFF" transform="translate(0,0)"/>
<path d="" fill="#FFFFFF" transform="translate(0,0)"/>
<path d="" fill="#FFFFFF" transform="translate(0,0)"/>
<path d="" fill="#FFFFFF" transform="translate(0,0)"/>
<path d="" fill="#FFFFFF" transform="translate(0,0)"/>
<path d="" fill="#FFFFFF" transform="translate(0,0)"/>
<path d="" fill="#FFFFFF" transform="translate(0,0)"/>
<path d="" fill="#FFFFFF" transform="translate(0,0)"/>
<path d="" fill="#FFFFFF" transform="translate(0,0)"/>
<path d="" fill="#FFFFFF" transform="translate(0,0)"/>
<path d="" fill="#FFFFFF" transform="translate(0,0)"/>
<path d="" fill="#FFFFFF" transform="translate(0,0)"/>
<path d="" fill="#FFFFFF" transform="translate(0,0)"/>
<path d="" fill="#0000FF" transform="translate(0,0)"/>
</svg>
